<svg id="Calque_1" data-name="Calque 1" xmlns="http://www.w3.org/2000/svg" viewBox="0 0 1410 604"><defs><style>.cls-1{fill:#e94c2c;}</style></defs><path class="cls-1" d="M459.29,263.53q-9.89-4.68-14.76-10.7t-4.89-10a3.78,3.78,0,0,1,1.56-3.23,5.39,5.39,0,0,1,3.22-1.14h9.36a4.79,4.79,0,0,1,3.74,2.08,41.31,41.31,0,0,0,10.81,9.15q5.82,3.33,15.59,3.32,10.8,0,17.57-4.26T508.24,237a12.07,12.07,0,0,0-2.8-8.22q-2.82-3.21-9.57-5.61a180.14,180.14,0,0,0-20.06-5.3q-18.07-3.94-25.67-11.43t-7.59-19.33a27.19,27.19,0,0,1,4.68-15.08A33.7,33.7,0,0,1,461,160.42q9-4.47,21.72-4.47,13.31,0,22.66,4.37t14,10.29q4.68,5.92,4.68,9.87a4.07,4.07,0,0,1-1.35,3.12,4.6,4.6,0,0,1-3.22,1.25h-8.73a5.11,5.11,0,0,1-4.16-2.08,67.19,67.19,0,0,0-5.72-6.13,20.91,20.91,0,0,0-6.86-3.85,32.83,32.83,0,0,0-11.33-1.66q-10,0-15.38,4.26a13.48,13.48,0,0,0-5.41,11.12,11.82,11.82,0,0,0,2.29,7.38q2.29,3,8.84,5.51a139.64,139.64,0,0,0,19,5.2q19.74,4.16,28,12t8.21,19.85a27.3,27.3,0,0,1-5.2,16.22q-5.19,7.28-15.28,11.43t-24,4.16Q469.16,268.21,459.29,263.53Z"/><path class="cls-1" d="M483.71,269.45c-9.84,0-18.24-1.61-25-4.8s-11.83-6.9-15.19-11c-3.47-4.29-5.16-7.81-5.16-10.76a5,5,0,0,1,2.07-4.23,6.59,6.59,0,0,1,3.95-1.38h9.36a6,6,0,0,1,4.71,2.54,40.06,40.06,0,0,0,10.45,8.85c3.67,2.1,8.71,3.16,15,3.16,6.93,0,12.62-1.37,16.9-4.07S507,241.6,507,237a10.77,10.77,0,0,0-2.5-7.4c-1.72-2-4.76-3.74-9-5.26a181.3,181.3,0,0,0-19.91-5.25c-12.23-2.67-21.08-6.63-26.28-11.77s-8-12-8-20.21a28.47,28.47,0,0,1,4.88-15.75,35,35,0,0,1,14.21-12.08c6.17-3.05,13.67-4.6,22.27-4.6,9,0,16.81,1.51,23.19,4.48s11.25,6.56,14.48,10.65,4.94,7.7,4.94,10.64a5.29,5.29,0,0,1-1.75,4,5.81,5.81,0,0,1-4.06,1.58h-8.73a6.34,6.34,0,0,1-5.13-2.54,65.27,65.27,0,0,0-5.59-6,19.81,19.81,0,0,0-6.45-3.6,31.66,31.66,0,0,0-10.9-1.59c-6.33,0-11.25,1.35-14.61,4a12.19,12.19,0,0,0-4.93,10.14,10.66,10.66,0,0,0,2,6.63c1.37,1.81,4.16,3.53,8.29,5.1a138.25,138.25,0,0,0,18.84,5.14c13.33,2.81,22.93,6.94,28.55,12.27s8.6,12.4,8.6,20.75A28.62,28.62,0,0,1,524,253.34c-3.58,5-8.91,9-15.81,11.86S493.11,269.45,483.71,269.45Zm-39.29-29.73a4.13,4.13,0,0,0-2.48.91,2.52,2.52,0,0,0-1.06,2.22c0,2.33,1.55,5.42,4.61,9.19s7.94,7.34,14.33,10.37h0c6.38,3,14.42,4.56,23.89,4.56,9.08,0,17-1.37,23.54-4.07s11.43-6.37,14.74-11a26.17,26.17,0,0,0,5-15.49,25.12,25.12,0,0,0-7.83-19c-5.28-5-14.48-8.92-27.36-11.64a141.69,141.69,0,0,1-19.21-5.25c-4.63-1.76-7.7-3.7-9.38-5.92a13.11,13.11,0,0,1-2.54-8.13,14.76,14.76,0,0,1,5.88-12.1c3.81-3,9.25-4.52,16.15-4.52a34.09,34.09,0,0,1,11.76,1.74,22.38,22.38,0,0,1,7.27,4.09,69.9,69.9,0,0,1,5.83,6.25,3.93,3.93,0,0,0,3.21,1.64h8.73a3.36,3.36,0,0,0,2.38-.92,2.82,2.82,0,0,0,.95-2.21c0-2.33-1.49-5.39-4.41-9.1s-7.55-7.12-13.58-9.94-13.49-4.24-22.14-4.24c-8.22,0-15.34,1.46-21.17,4.34a32.7,32.7,0,0,0-13.23,11.2,26.1,26.1,0,0,0-4.48,14.4c0,7.51,2.43,13.72,7.22,18.44s13.3,8.54,25.07,11.11A181.87,181.87,0,0,1,496.29,222c4.75,1.69,8,3.64,10.08,6a13.28,13.28,0,0,1,3.11,9c0,5.42-2.46,9.72-7.33,12.79-4.69,3-10.82,4.46-18.23,4.46-6.71,0-12.16-1.18-16.21-3.49a42.84,42.84,0,0,1-11.13-9.42,3.63,3.63,0,0,0-2.8-1.65Z"/><path class="cls-1" d="M557.2,136.52a4.63,4.63,0,0,1-1.36-3.43V121.86a5,5,0,0,1,1.36-3.53,4.47,4.47,0,0,1,3.43-1.46h13.09a5,5,0,0,1,5,5v11.23a4.52,4.52,0,0,1-1.45,3.43,5,5,0,0,1-3.54,1.35H560.63A4.64,4.64,0,0,1,557.2,136.52Zm1.66,128.26a4.66,4.66,0,0,1-1.35-3.43V162.81a4.62,4.62,0,0,1,4.78-4.78h10a4.62,4.62,0,0,1,4.78,4.78v98.54a4.62,4.62,0,0,1-4.78,4.78h-10A4.64,4.64,0,0,1,558.86,264.78Z"/><path class="cls-1" d="M572.27,267.37h-10a5.85,5.85,0,0,1-6-6V162.81a5.85,5.85,0,0,1,6-6h10a5.86,5.86,0,0,1,6,6v98.54a5.85,5.85,0,0,1-6,6Zm-10-108.09a3.38,3.38,0,0,0-3.54,3.53v98.54a3.4,3.4,0,0,0,1,2.55h0a3.42,3.42,0,0,0,2.55,1h10a3.39,3.39,0,0,0,3.54-3.54V162.81a3.38,3.38,0,0,0-3.54-3.53Zm11.43-20.17H560.63a5.86,5.86,0,0,1-6-6V121.86a6.23,6.23,0,0,1,1.69-4.38,5.68,5.68,0,0,1,4.34-1.85h13.09a6.21,6.21,0,0,1,6.23,6.23v11.23a5.71,5.71,0,0,1-1.85,4.34A6.25,6.25,0,0,1,573.72,139.11Zm-13.09-21a3.25,3.25,0,0,0-2.52,1,3.76,3.76,0,0,0-1,2.69v11.23a3.43,3.43,0,0,0,1,2.55h0a3.42,3.42,0,0,0,2.55,1h13.09a3.8,3.8,0,0,0,2.69-1,3.27,3.27,0,0,0,1.06-2.52V121.86a3.71,3.71,0,0,0-3.75-3.74Z"/><path class="cls-1" d="M614.57,264.78a4.66,4.66,0,0,1-1.35-3.43v-138a4.62,4.62,0,0,1,4.78-4.78h9.77a4.62,4.62,0,0,1,4.78,4.78v138a4.62,4.62,0,0,1-4.78,4.78H618A4.64,4.64,0,0,1,614.57,264.78Z"/><path class="cls-1" d="M627.77,267.37H618a5.86,5.86,0,0,1-6-6v-138a5.88,5.88,0,0,1,6-6h9.77a5.86,5.86,0,0,1,6,6v138a5.85,5.85,0,0,1-6,6ZM618,119.78a3.39,3.39,0,0,0-3.54,3.54v138a3.43,3.43,0,0,0,1,2.55h0a3.42,3.42,0,0,0,2.55,1h9.77a3.39,3.39,0,0,0,3.54-3.54v-138a3.38,3.38,0,0,0-3.54-3.54Z"/><path class="cls-1" d="M679.74,264.05a33.45,33.45,0,0,1-13.62-11.33,27.59,27.59,0,0,1-4.88-15.9q0-13.92,11.32-22.87t30.67-11.64L734,198v-5.62q0-21.2-24.11-21.2-9.36,0-15.18,3.84A26.41,26.41,0,0,0,686,184a6.07,6.07,0,0,1-1.56,2.7,3.78,3.78,0,0,1-2.59.83h-8.94A4.63,4.63,0,0,1,668.3,183q0-4.78,4.58-11.23t14-11.12q9.45-4.68,23.18-4.68,26.6,0,36.17,16.22Q758.51,156,781.6,156q26.19,0,36.79,16.22t10.6,38v3.53a4.47,4.47,0,0,1-1.45,3.43,5,5,0,0,1-3.54,1.35H754v1.88q.42,16.42,8.42,24.42a26,26,0,0,0,19,8,33.48,33.48,0,0,0,13.82-2.92A25.14,25.14,0,0,0,805.92,241a10,10,0,0,1,2.81-2.91,7.86,7.86,0,0,1,3.63-.63h9.36a4.47,4.47,0,0,1,3.12,1.15,4.14,4.14,0,0,1,1.24,3.22q0,4.16-5.3,10.5T805.3,263.43q-10.2,4.77-23.91,4.78-27.43,0-39.29-21-12.89,21-42.2,21A46.4,46.4,0,0,1,679.74,264.05Zm45.83-20.27q8.63-8.84,8.63-25.46V212.5L710.09,216q-14.76,2.08-22.25,7t-7.48,12.37a14.38,14.38,0,0,0,6.86,12.79,29,29,0,0,0,16.22,4.47Q716.94,252.62,725.57,243.78ZM809,204.18v-.83q0-14.55-7-23.39t-20.47-8.83a25.73,25.73,0,0,0-19.23,8.31q-8,8.33-8.42,23.91v.83Z"/><path class="cls-1" d="M781.39,269.45c-17.91,0-31.14-6.68-39.33-19.87-8.89,13.19-23.06,19.87-42.16,19.87a47.85,47.85,0,0,1-20.7-4.28,34.83,34.83,0,0,1-14.11-11.75,29,29,0,0,1-5.1-16.6c0-9.64,4-17.67,11.8-23.84s18.22-10.07,31.27-11.9l29.69-4.21v-4.54c0-13.43-7.48-20-22.87-20-6,0-10.84,1.23-14.49,3.64a25.38,25.38,0,0,0-8.28,8.52,7.18,7.18,0,0,1-1.87,3.12,5,5,0,0,1-3.42,1.14h-8.94a5.84,5.84,0,0,1-5.82-5.81c0-3.44,1.62-7.46,4.8-11.95s8-8.32,14.5-11.51,14.43-4.81,23.73-4.81c17.28,0,29.48,5.15,36.28,15.31,8.34-10.16,20.18-15.31,35.23-15.31,17.82,0,30.55,5.65,37.83,16.78,7.17,11,10.81,24,10.81,38.72v3.53a5.72,5.72,0,0,1-1.85,4.34,6.25,6.25,0,0,1-4.39,1.69H755.19v.63c.27,10.53,3,18.47,8.06,23.54a24.87,24.87,0,0,0,18.14,7.64,32.54,32.54,0,0,0,13.32-2.8,24.21,24.21,0,0,0,10.19-8.51,11.15,11.15,0,0,1,3.23-3.3,9,9,0,0,1,4.23-.77h9.36a5.62,5.62,0,0,1,3.95,1.47,5.35,5.35,0,0,1,1.66,4.14c0,3.1-1.83,6.79-5.59,11.29-3.64,4.35-9,8.2-15.92,11.45S790.67,269.45,781.39,269.45Zm-39.24-24.69,1,1.84c7.63,13.51,20.48,20.37,38.21,20.37,8.92,0,16.78-1.57,23.38-4.67s11.66-6.73,15.06-10.79,5-7.24,5-9.7a3,3,0,0,0-.84-2.31,3.22,3.22,0,0,0-2.28-.82h-9.36a6.53,6.53,0,0,0-3,.48,8.64,8.64,0,0,0-2.4,2.55,26.58,26.58,0,0,1-11.2,9.34,35.05,35.05,0,0,1-14.33,3,27.29,27.29,0,0,1-19.9-8.37c-5.54-5.54-8.5-14-8.78-25.27v-3.15H824a3.73,3.73,0,0,0,2.69-1,3.22,3.22,0,0,0,1.06-2.52v-3.53c0-14.24-3.5-26.81-10.4-37.36-6.79-10.39-18.82-15.65-35.75-15.65-14.9,0-26.46,5.29-34.35,15.72l-1.12,1.48-.94-1.6c-6.11-10.35-17.92-15.6-35.1-15.6-8.91,0-16.53,1.53-22.63,4.54s-10.66,6.62-13.57,10.73-4.34,7.6-4.34,10.51a3.36,3.36,0,0,0,3.33,3.33h8.94a2.63,2.63,0,0,0,1.77-.52,4.89,4.89,0,0,0,1.2-2.17l.1-.21a27.74,27.74,0,0,1,9.13-9.47c4.07-2.69,9.4-4.05,15.86-4.05,16.82,0,25.36,7.55,25.36,22.44V199l-31.84,4.52c-12.61,1.76-22.72,5.6-30.07,11.39s-10.85,13-10.85,21.89a26.51,26.51,0,0,0,4.67,15.2,32.24,32.24,0,0,0,13.12,10.91,45.37,45.37,0,0,0,19.63,4c19,0,32.83-6.87,41.14-20.41Zm-38.71,9.1a30.39,30.39,0,0,1-16.9-4.67,15.61,15.61,0,0,1-7.42-13.83c0-5.41,2.71-9.92,8-13.41,5.13-3.34,12.78-5.75,22.75-7.15l25.53-3.74v7.26c0,11.37-3,20.23-9,26.33S712.75,253.86,703.44,253.86ZM733,213.93l-22.69,3.33c-9.62,1.35-16.93,3.63-21.75,6.78-4.65,3-6.92,6.74-6.92,11.32a13.09,13.09,0,0,0,6.3,11.75,27.94,27.94,0,0,0,15.54,4.26c8.62,0,15.76-2.84,21.25-8.46h0c5.49-5.62,8.27-13.9,8.27-24.59Zm77.32-8.51H752.71v-2.07c.28-10.7,3.23-19,8.76-24.77a27.07,27.07,0,0,1,20.13-8.69c9.36,0,16.58,3.13,21.45,9.3s7.23,14.22,7.23,24.16Zm-55.08-2.48h52.59c-.06-9.18-2.31-16.65-6.69-22.21s-10.94-8.36-19.5-8.36a24.65,24.65,0,0,0-18.34,7.94C758.25,185.52,755.54,193.13,755.2,202.94Z"/><path class="cls-1" d="M457.52,459.68a35,35,0,0,1-13.82-11.33,26.81,26.81,0,0,1-5.1-15.9q0-13.72,11.33-22.56t30.66-11.53l31-4.37v-6q0-21.19-24.32-21.2-9.15,0-15,3.84a26.41,26.41,0,0,0-8.73,9,6.26,6.26,0,0,1-1.56,2.7,3.81,3.81,0,0,1-2.6.83h-8.94a4.61,4.61,0,0,1-4.57-4.57q.19-5,4.68-11.33t13.82-11q9.36-4.68,23.07-4.68,23.28,0,33.47,10.92t10.19,27.12V457a4.62,4.62,0,0,1-4.78,4.78h-9.57A4.62,4.62,0,0,1,512,457V448a35.78,35.78,0,0,1-13.3,11.22q-8.73,4.58-22.24,4.58A43.44,43.44,0,0,1,457.52,459.68Zm45.42-20.27q8.63-8.84,8.63-25.46v-5.82l-24.12,3.53q-14.76,2.08-22.24,7T457.73,431a14.36,14.36,0,0,0,6.86,12.79,29,29,0,0,0,16.21,4.47Q494.32,448.25,502.94,439.41Z"/><path class="cls-1" d="M476.44,465.08A44.82,44.82,0,0,1,457,460.8h0a36.45,36.45,0,0,1-14.31-11.73,28.17,28.17,0,0,1-5.32-16.62c0-9.51,4-17.43,11.81-23.54,7.69-6,18.2-10,31.25-11.79l29.9-4.21v-5c0-13.43-7.54-20-23.07-20-5.83,0-10.63,1.22-14.29,3.64a25.25,25.25,0,0,0-8.27,8.52,7.19,7.19,0,0,1-1.88,3.12,5,5,0,0,1-3.42,1.14h-8.94a5.84,5.84,0,0,1-5.81-5.81c.14-3.61,1.79-7.64,4.9-12.05s7.89-8.22,14.28-11.41,14.34-4.81,23.63-4.81c15.81,0,27.38,3.8,34.38,11.31s10.52,16.89,10.52,28V457a5.85,5.85,0,0,1-6,6h-9.57a5.86,5.86,0,0,1-6-6v-5.34a39.65,39.65,0,0,1-11.48,8.72C493.28,463.49,485.6,465.08,476.44,465.08Zm-18.39-6.52a42.43,42.43,0,0,0,18.39,4c8.76,0,16.05-1.49,21.66-4.43A34.77,34.77,0,0,0,511,447.33l2.27-3.29V457a3.38,3.38,0,0,0,3.53,3.54h9.57a3.39,3.39,0,0,0,3.54-3.54V389.62c0-10.43-3.32-19.27-9.86-26.28s-17.47-10.51-32.56-10.51c-8.9,0-16.48,1.52-22.52,4.54S454.42,364,451.57,368s-4.32,7.6-4.45,10.67a3.38,3.38,0,0,0,3.33,3.28h8.94a2.62,2.62,0,0,0,1.77-.52,4.87,4.87,0,0,0,1.21-2.17l.09-.21a27.74,27.74,0,0,1,9.13-9.47c4.07-2.69,9.34-4.05,15.66-4.05,17,0,25.56,7.55,25.56,22.44v7.11l-32,4.52c-12.62,1.76-22.73,5.56-30.07,11.28s-10.86,12.75-10.86,21.58a25.71,25.71,0,0,0,4.87,15.18,33.87,33.87,0,0,0,13.34,10.93Zm22.75-9.07a30.36,30.36,0,0,1-16.89-4.67A15.6,15.6,0,0,1,456.48,431c0-5.41,2.71-9.92,8-13.41,5.12-3.34,12.78-5.75,22.75-7.15l25.53-3.74V414c0,11.37-3,20.23-9,26.33h0C497.86,446.39,490.12,449.49,480.8,449.49Zm29.52-39.93-22.69,3.33c-9.61,1.35-16.93,3.63-21.74,6.77-4.66,3-6.92,6.75-6.92,11.33a13.09,13.09,0,0,0,6.3,11.75A27.93,27.93,0,0,0,480.8,447c8.62,0,15.77-2.84,21.25-8.46h0c5.49-5.62,8.27-13.9,8.27-24.59Z"/><path class="cls-1" d="M575.07,451.26Q562.48,438.69,561.66,416l-.2-8.31.2-8.32q.84-22.65,13.41-35.23t34.82-12.58q15,0,25.36,5.41t15.49,13.3a32.27,32.27,0,0,1,5.51,15.8,3.67,3.67,0,0,1-1.25,3.33,5.25,5.25,0,0,1-3.53,1.24h-10a4.88,4.88,0,0,1-3.12-.83,8.52,8.52,0,0,1-2.08-3.32q-3.54-10-10-14.24T610.1,368q-12.9,0-20.48,8t-8.21,24.42l-.21,7.49.21,7.07q.63,16.62,8.11,24.53t20.58,7.89q9.76,0,16.21-4.26t10-14.24a9.88,9.88,0,0,1,2.08-3.43,4.54,4.54,0,0,1,3.12-.93h10A5,5,0,0,1,655,425.9a3.93,3.93,0,0,1,1.25,3.43q-.42,7.69-5.51,15.69t-15.38,13.41q-10.29,5.4-25.47,5.41Q587.65,463.84,575.07,451.26Z"/><path class="cls-1" d="M609.89,465.08c-15.1,0-27.11-4.35-35.7-12.94h0c-8.57-8.57-13.21-20.71-13.77-36.07l-.21-8.36v0l.21-8.32c.56-15.37,5.2-27.5,13.77-36.08s20.6-12.94,35.7-12.94c10.13,0,18.86,1.87,25.94,5.55s12.45,8.3,15.95,13.73a33.52,33.52,0,0,1,5.71,16.4,4.88,4.88,0,0,1-1.68,4.34,6.47,6.47,0,0,1-4.34,1.55h-10a6.06,6.06,0,0,1-3.9-1.11,9.53,9.53,0,0,1-2.45-3.82l0-.06c-2.25-6.36-5.45-10.94-9.49-13.62s-9.3-4.05-15.53-4.05c-8.2,0-14.78,2.56-19.58,7.61s-7.46,13-7.87,23.62l-.2,7.44.2,7c.41,10.71,3,18.7,7.77,23.71s11.34,7.51,19.68,7.51c6.23,0,11.46-1.36,15.53-4.05s7.23-7.26,9.49-13.62l0-.06a10.81,10.81,0,0,1,2.4-3.88,5.72,5.72,0,0,1,4-1.25h10a6.24,6.24,0,0,1,4.38,1.68,5.17,5.17,0,0,1,1.63,4.46,33.84,33.84,0,0,1-5.69,16.24c-3.5,5.5-8.84,10.16-15.86,13.84S620.16,465.08,609.89,465.08ZM562.7,407.71l.21,8.28c.53,14.7,4.92,26.28,13,34.39h0c8.1,8.11,19.52,12.21,33.94,12.21,9.87,0,18.24-1.77,24.89-5.26s11.65-7.85,14.91-13a31.59,31.59,0,0,0,5.32-15.1,2.71,2.71,0,0,0-.86-2.45,3.72,3.72,0,0,0-2.68-1h-10a3.43,3.43,0,0,0-2.29.62,8.21,8.21,0,0,0-1.75,2.95c-2.44,6.87-6,11.86-10.45,14.83s-10.17,4.47-16.9,4.47c-9.05,0-16.28-2.79-21.48-8.29s-8-14-8.45-25.34l-.21-7.11v0l.21-7.48c.43-11.22,3.3-19.71,8.55-25.25s12.47-8.39,21.38-8.39c6.73,0,12.41,1.51,16.9,4.47s8,8,10.45,14.83a7.17,7.17,0,0,0,1.69,2.8,3.86,3.86,0,0,0,2.35.56h10a4,4,0,0,0,2.72-.95,2.4,2.4,0,0,0,.82-2.26A31.2,31.2,0,0,0,649.69,371c-3.26-5-8.31-9.38-15-12.87s-15.06-5.26-24.79-5.26c-14.42,0-25.84,4.1-33.94,12.21s-12.51,19.69-13,34.4Z"/><path class="cls-1" d="M697.41,459.68a35.06,35.06,0,0,1-13.83-11.33,26.8,26.8,0,0,1-5.09-15.9q0-13.72,11.33-22.56t30.66-11.53l31-4.37v-6q0-21.19-24.32-21.2-9.15,0-15,3.84a26.41,26.41,0,0,0-8.73,9,6.07,6.07,0,0,1-1.56,2.7,3.78,3.78,0,0,1-2.59.83h-8.94a4.63,4.63,0,0,1-4.58-4.57q.21-5,4.68-11.33t13.83-11q9.35-4.68,23.07-4.68,23.28,0,33.47,10.92T771,389.62V457a4.62,4.62,0,0,1-4.78,4.78h-9.56a4.62,4.62,0,0,1-4.78-4.78V448a35.78,35.78,0,0,1-13.3,11.22q-8.75,4.58-22.25,4.58A43.43,43.43,0,0,1,697.41,459.68Zm45.42-20.27q8.63-8.84,8.62-25.46v-5.82l-24.11,3.53q-14.76,2.08-22.24,7T697.61,431a14.38,14.38,0,0,0,6.86,12.79,29.06,29.06,0,0,0,16.22,4.47Q734.19,448.25,742.83,439.41Z"/><path class="cls-1" d="M716.32,465.08a44.89,44.89,0,0,1-19.45-4.28h0a36.35,36.35,0,0,1-14.3-11.73,28.17,28.17,0,0,1-5.32-16.62c0-9.51,4-17.43,11.8-23.54s18.21-10,31.26-11.79l29.9-4.21v-5c0-13.43-7.55-20-23.08-20-5.82,0-10.63,1.22-14.28,3.64a25.38,25.38,0,0,0-8.28,8.52,7.18,7.18,0,0,1-1.87,3.12,5,5,0,0,1-3.42,1.14h-8.94a5.86,5.86,0,0,1-5.82-5.81c.15-3.6,1.8-7.64,4.91-12.05s7.89-8.22,14.28-11.41,14.33-4.81,23.63-4.81c15.81,0,27.37,3.8,34.38,11.31s10.52,16.89,10.52,28V457a5.86,5.86,0,0,1-6,6h-9.56a5.86,5.86,0,0,1-6-6v-5.34a39.83,39.83,0,0,1-11.49,8.72C733.16,463.49,725.49,465.08,716.32,465.08Zm-18.38-6.52a42.39,42.39,0,0,0,18.38,4c8.76,0,16-1.49,21.67-4.43a34.86,34.86,0,0,0,12.86-10.83l2.26-3.29V457a3.4,3.4,0,0,0,1,2.55,3.44,3.44,0,0,0,2.55,1h9.56a3.39,3.39,0,0,0,3.54-3.54V389.62c0-10.43-3.31-19.27-9.85-26.28s-17.47-10.51-32.56-10.51c-8.91,0-16.49,1.52-22.52,4.54S694.3,364,691.46,368s-4.33,7.6-4.45,10.67a3.37,3.37,0,0,0,3.33,3.28h8.94a2.63,2.63,0,0,0,1.77-.52,5,5,0,0,0,1.21-2.17l.09-.21a27.74,27.74,0,0,1,9.13-9.47c4.07-2.69,9.33-4.05,15.65-4.05,17,0,25.57,7.55,25.57,22.44v7.11l-32.05,4.52c-12.61,1.76-22.73,5.56-30.07,11.28s-10.85,12.75-10.85,21.58a25.77,25.77,0,0,0,4.86,15.18,34.05,34.05,0,0,0,13.35,10.93Zm22.75-9.07a30.39,30.39,0,0,1-16.9-4.67A15.61,15.61,0,0,1,696.37,431c0-5.41,2.71-9.92,8-13.41,5.12-3.34,12.77-5.75,22.75-7.15l25.53-3.74V414c0,11.37-3,20.23-9,26.33h0C737.75,446.39,730,449.49,720.69,449.49Zm29.52-39.93-22.69,3.33c-9.62,1.35-16.93,3.63-21.74,6.77-4.66,3-6.92,6.75-6.92,11.33a13.08,13.08,0,0,0,6.29,11.75A27.94,27.94,0,0,0,720.69,447c8.62,0,15.77-2.84,21.25-8.46h0c5.49-5.62,8.27-13.9,8.27-24.59Z"/><path class="cls-1" d="M813,449.7Q802,435.57,801.34,414l-.21-6.24.21-6.24Q802,380.06,813,365.82t32.64-14.24q21.4,0,33.68,15.18V319a4.63,4.63,0,0,1,4.78-4.79h10a4.63,4.63,0,0,1,4.78,4.79V457a4.62,4.62,0,0,1-4.78,4.78H884.7a4.62,4.62,0,0,1-4.78-4.78v-8.73q-12.06,15.58-34.3,15.59Q824,463.84,813,449.7Zm58.52-12.16A39.51,39.51,0,0,0,879.3,415q.19-2.3.2-7.9,0-5.82-.2-8.11a34.74,34.74,0,0,0-7.9-21.41q-7.49-9.15-21.41-9.15-14.78,0-21.52,9.15t-7.38,24.11l-.21,6Q820.88,447,850,447,864.33,447,871.5,437.54Z"/><path class="cls-1" d="M845.62,465.08c-14.75,0-26.06-4.92-33.62-14.61S800.52,428.6,800.1,414l-.21-6.27.21-6.28c.42-14.47,4.43-26.71,11.9-36.37s18.87-14.72,33.62-14.72c13.36,0,24.25,4.41,32.43,13.1V319a5.88,5.88,0,0,1,6-6h10a5.86,5.86,0,0,1,6,6V457a5.86,5.86,0,0,1-6,6H884.7a5.86,5.86,0,0,1-6-6v-5.32C870.57,460.57,859.47,465.08,845.62,465.08Zm-43.24-57.37.2,6.19c.41,14.09,4.24,25.87,11.38,35h0c7.06,9.06,17.71,13.65,31.66,13.65,14.35,0,25.56-5.08,33.32-15.1l2.22-2.88V457a3.39,3.39,0,0,0,3.54,3.54h9.36a3.38,3.38,0,0,0,3.53-3.54V319a3.36,3.36,0,0,0-3.53-3.54h-10a3.38,3.38,0,0,0-3.54,3.54v51.32l-2.21-2.73c-7.89-9.76-18.9-14.71-32.71-14.71S821,357.45,814,366.58s-11,21-11.39,34.93ZM850,448.24c-20.14,0-30.35-13.64-30.35-40.53l.21-6.07c.42-10.19,3-18.54,7.62-24.81s12.3-9.65,22.52-9.65c9.63,0,17.15,3.23,22.37,9.6a36.19,36.19,0,0,1,8.18,22.12c.14,1.59.21,4.34.21,8.19s-.07,6.43-.22,8a40.83,40.83,0,0,1-8,23.19C867.49,444.89,859.91,448.24,850,448.24Zm0-78.58c-9.38,0-16.29,2.91-20.52,8.65s-6.73,13.74-7.14,23.42l-.21,6c0,25.56,9.12,38,27.87,38,9.11,0,16-3,20.52-9h0a38.39,38.39,0,0,0,7.54-21.86c.14-1.56.21-4.18.21-7.84s-.07-6.49-.2-8V399a33.71,33.71,0,0,0-7.61-20.67C865.72,372.59,858.84,369.66,850,369.66Z"/><path class="cls-1" d="M944.05,450.64q-12.78-13.2-14-36.07l-.21-7.07.21-6.86q1.44-22.45,14.24-35.75T978,351.58q23.07,0,35.75,14.66t12.68,39.6v3.53a4.62,4.62,0,0,1-4.78,4.78H949.76V416q.63,13.53,8.22,23T978,448.45q9.56,0,15.69-3.84a30.62,30.62,0,0,0,9-8,12.3,12.3,0,0,1,2.81-3,7.89,7.89,0,0,1,3.43-.52h10.19a4.71,4.71,0,0,1,3.11,1,3.56,3.56,0,0,1,1.25,2.91q0,4.58-5.72,11t-16,11.12a56.45,56.45,0,0,1-23.6,4.68Q956.84,463.84,944.05,450.64Zm62.67-50.83v-.62q0-14.35-7.79-23.39t-20.89-9q-13.1,0-20.69,9t-7.59,23.39v.62ZM969.1,334.74a3.65,3.65,0,0,1,1-2.7l15.59-18.71a17.35,17.35,0,0,1,3.43-3.11,8.31,8.31,0,0,1,4.26-.84h14.13a3.74,3.74,0,0,1,2.91,1.15,4.26,4.26,0,0,1,1,3,3.4,3.4,0,0,1-1,2.5l-24.11,19.74a8.37,8.37,0,0,1-3.12,1.87,13.82,13.82,0,0,1-3.74.42h-7.07Q969.11,338.07,969.1,334.74Z"/><path class="cls-1" d="M978.24,465.08c-14.56,0-26.36-4.57-35.08-13.58s-13.54-21.38-14.38-36.86l-.21-7.14.2-6.9c1-15.23,5.9-27.53,14.59-36.57s20.4-13.69,34.68-13.69c15.68,0,28,5.08,36.69,15.09s13,23.55,13,40.41v3.53a5.86,5.86,0,0,1-6,6H951V416c.4,8.65,3.07,16.13,7.93,22.2s11.1,9,19.1,9c6.11,0,11.16-1.23,15-3.65a30,30,0,0,0,8.69-7.67c1.84-2.45,2.71-3.1,3.21-3.38a8.55,8.55,0,0,1,4-.68h10.19a5.9,5.9,0,0,1,3.91,1.33,4.8,4.8,0,0,1,1.69,3.86c0,3.4-2,7.27-6,11.84-3.91,4.41-9.43,8.26-16.42,11.43A57.9,57.9,0,0,1,978.24,465.08ZM931.05,407.5l.21,7c.81,14.84,5.41,26.71,13.68,35.24h0c8.24,8.51,19.44,12.82,33.3,12.82a55.47,55.47,0,0,0,23.08-4.56c6.67-3,11.92-6.67,15.6-10.82s5.4-7.47,5.4-10.19a2.38,2.38,0,0,0-.8-2,3.51,3.51,0,0,0-2.32-.75H1009a6.48,6.48,0,0,0-2.83.37,10.39,10.39,0,0,0-2.41,2.67,32.29,32.29,0,0,1-9.38,8.31c-4.27,2.68-9.77,4-16.35,4a25.72,25.72,0,0,1-21-9.93c-5.21-6.48-8.06-14.45-8.49-23.69v-3.17h73.17a3.39,3.39,0,0,0,3.54-3.54v-3.53c0-16.24-4.17-29.29-12.38-38.79S993,352.83,978,352.83c-13.58,0-24.65,4.34-32.89,12.92s-12.95,20.38-13.89,35Zm76.92-6.45H948.52v-1.86c0-9.82,2.65-18,7.88-24.19S969,365.52,978,365.52s16.41,3.18,21.83,9.47,8.1,14.37,8.1,24.2Zm-57-2.48h54.47c-.11-8.94-2.63-16.32-7.49-22S986.35,368,978,368s-14.95,2.89-19.74,8.6S951.12,389.63,951,398.57Zm28.48-59.26h-7.07c-2.9,0-4.57-1.66-4.57-4.57a4.83,4.83,0,0,1,1.37-3.53l15.55-18.67a18.42,18.42,0,0,1,3.74-3.38,9.36,9.36,0,0,1,4.91-1h14.13a4.94,4.94,0,0,1,3.83,1.55,5.51,5.51,0,0,1,1.37,3.85,4.62,4.62,0,0,1-1.41,3.37l-.09.09-24.11,19.75a9.55,9.55,0,0,1-3.57,2.1A14.94,14.94,0,0,1,979.49,339.31Zm13.93-28.68a7.2,7.2,0,0,0-3.61.64,17.2,17.2,0,0,0-3.16,2.9L971,332.92a2.38,2.38,0,0,0-.68,1.82c0,1.54.55,2.09,2.08,2.09h7.07a12.91,12.91,0,0,0,3.4-.37,7.22,7.22,0,0,0,2.64-1.61l24.1-19.73a2.17,2.17,0,0,0,.63-1.58,3.07,3.07,0,0,0-.72-2.18,2.55,2.55,0,0,0-2-.73Z"/><path class="cls-1" d="M1058,460.41a4.66,4.66,0,0,1-1.35-3.43V358.44a4.62,4.62,0,0,1,4.78-4.78h9.36a4.62,4.62,0,0,1,4.78,4.78v7.28q10.8-14.13,30.14-14.14,23.08,0,32.64,19.13a37,37,0,0,1,14.14-13.93,40.93,40.93,0,0,1,20.58-5.2q17,0,27.85,11.64t10.81,33.68V457a4.62,4.62,0,0,1-4.78,4.78h-9.77a4.62,4.62,0,0,1-4.78-4.78V398.77q0-16.22-6.76-23.28t-17.77-7.07a22.82,22.82,0,0,0-16.84,7.17q-7.07,7.17-7.07,23.18V457a4.62,4.62,0,0,1-4.78,4.78h-9.77a4.62,4.62,0,0,1-4.78-4.78V398.77q0-16.22-7-23.28a23.66,23.66,0,0,0-17.57-7.07,22.82,22.82,0,0,0-16.84,7.17q-7.07,7.17-7.07,23V457a4.62,4.62,0,0,1-4.78,4.78h-10A4.66,4.66,0,0,1,1058,460.41Z"/><path class="cls-1" d="M1206.91,463h-9.77a5.86,5.86,0,0,1-6-6V398.77c0-10.42-2.16-18-6.42-22.42s-9.92-6.69-16.87-6.69a21.71,21.71,0,0,0-15.95,6.8c-4.46,4.52-6.71,12-6.71,22.31V457a5.86,5.86,0,0,1-6,6h-9.77a5.86,5.86,0,0,1-6-6V398.77c0-10.42-2.23-18-6.61-22.41a22.55,22.55,0,0,0-16.68-6.7,21.71,21.71,0,0,0-16,6.8c-4.46,4.52-6.71,12-6.71,22.1V457a5.86,5.86,0,0,1-6,6h-10a5.86,5.86,0,0,1-6-6V358.44a5.86,5.86,0,0,1,6-6h9.36a5.85,5.85,0,0,1,6,6v3.85c7.24-7.93,16.94-12,28.9-12,15,0,26,6,32.71,17.86a38.61,38.61,0,0,1,13.45-12.5,42.3,42.3,0,0,1,21.2-5.36c11.66,0,21.34,4.05,28.76,12s11.14,19.58,11.14,34.52V457a5.85,5.85,0,0,1-6,6Zm-39.08-95.82c7.66,0,13.94,2.51,18.67,7.45s7.1,13.05,7.1,24.14V457a3.39,3.39,0,0,0,3.54,3.54h9.77a3.39,3.39,0,0,0,3.54-3.54V396.9c0-14.29-3.53-25.34-10.48-32.83s-16-11.24-26.94-11.24a39.89,39.89,0,0,0-20,5,35.93,35.93,0,0,0-13.67,13.46l-1.15,2-1-2.08c-6.21-12.4-16.52-18.43-31.53-18.43-12.42,0-22.23,4.59-29.15,13.64l-2.23,2.92V358.44a3.39,3.39,0,0,0-3.54-3.54h-9.36a3.38,3.38,0,0,0-3.53,3.54V457a3.43,3.43,0,0,0,1,2.55h0a3.45,3.45,0,0,0,2.55,1h10a3.39,3.39,0,0,0,3.54-3.54V398.56c0-10.82,2.5-18.84,7.43-23.84a24.13,24.13,0,0,1,17.72-7.54,24.94,24.94,0,0,1,18.45,7.44c4.86,4.93,7.32,13.06,7.32,24.15V457a3.4,3.4,0,0,0,1,2.55,3.44,3.44,0,0,0,2.55,1h9.77a3.39,3.39,0,0,0,3.54-3.54V398.77c0-11,2.5-19,7.43-24A24.13,24.13,0,0,1,1167.83,367.18Z"/><path class="cls-1" d="M1246.3,332.15a4.66,4.66,0,0,1-1.35-3.43V317.49a5,5,0,0,1,1.35-3.53,4.47,4.47,0,0,1,3.43-1.46h13.1a5,5,0,0,1,5,5v11.23a4.49,4.49,0,0,1-1.46,3.43,5,5,0,0,1-3.53,1.35h-13.1A4.64,4.64,0,0,1,1246.3,332.15ZM1248,460.41a4.66,4.66,0,0,1-1.35-3.43V358.44a4.62,4.62,0,0,1,4.78-4.78h10a4.62,4.62,0,0,1,4.78,4.78V457a4.62,4.62,0,0,1-4.78,4.78h-10A4.66,4.66,0,0,1,1248,460.41Z"/><path class="cls-1" d="M1261.37,463h-10a5.86,5.86,0,0,1-6-6V358.44a5.85,5.85,0,0,1,6-6h10a5.86,5.86,0,0,1,6,6V457a5.86,5.86,0,0,1-6,6Zm-10-108.1a3.38,3.38,0,0,0-3.53,3.54V457a3.43,3.43,0,0,0,1,2.55h0a3.44,3.44,0,0,0,2.55,1h10a3.39,3.39,0,0,0,3.54-3.54V358.44a3.39,3.39,0,0,0-3.54-3.54Zm11.44-20.16h-13.1a5.86,5.86,0,0,1-6-6V317.49a6.22,6.22,0,0,1,1.68-4.38,5.68,5.68,0,0,1,4.34-1.85h13.1a6.21,6.21,0,0,1,6.23,6.23v11.23a5.71,5.71,0,0,1-1.85,4.34A6.26,6.26,0,0,1,1262.83,334.74Zm-13.1-21a3.27,3.27,0,0,0-2.52,1.06,3.8,3.8,0,0,0-1,2.69v11.23a3.41,3.41,0,0,0,1,2.55h0a3.43,3.43,0,0,0,2.55,1h13.1a3.76,3.76,0,0,0,2.68-1,3.25,3.25,0,0,0,1.06-2.52V317.49a3.72,3.72,0,0,0-3.74-3.75Z"/><path class="cls-1" d="M1311.16,450.64q-12.79-13.2-14-36.07l-.21-7.07.21-6.86q1.44-22.45,14.23-35.75t33.78-13.31q23.08,0,35.76,14.66t12.68,39.6v3.53a4.62,4.62,0,0,1-4.78,4.78h-71.93V416q.63,13.53,8.21,23t20.06,9.45q9.57,0,15.7-3.84a30.62,30.62,0,0,0,9-8,12.3,12.3,0,0,1,2.81-3,7.89,7.89,0,0,1,3.43-.52h10.18a4.72,4.72,0,0,1,3.12,1,3.59,3.59,0,0,1,1.25,2.91q0,4.58-5.72,11t-16,11.12a56.45,56.45,0,0,1-23.6,4.68Q1323.95,463.84,1311.16,450.64Zm62.67-50.83v-.62q0-14.35-7.79-23.39t-20.9-9q-13.1,0-20.68,9t-7.59,23.39v.62Z"/><path class="cls-1" d="M1345.35,465.08c-14.56,0-26.36-4.57-35.09-13.58s-13.53-21.38-14.38-36.86l-.21-7.14.21-6.9c1-15.23,5.89-27.53,14.59-36.57s20.39-13.69,34.67-13.69c15.69,0,28,5.08,36.7,15.09s13,23.55,13,40.41v3.53a5.86,5.86,0,0,1-6,6h-70.68V416c.4,8.65,3.07,16.13,7.93,22.2s11.1,9,19.09,9c6.11,0,11.17-1.23,15-3.65a29.77,29.77,0,0,0,8.68-7.67c1.85-2.45,2.72-3.1,3.22-3.38a8.55,8.55,0,0,1,4-.68h10.18a5.91,5.91,0,0,1,3.92,1.33,4.8,4.8,0,0,1,1.69,3.86c0,3.4-2,7.27-6,11.84-3.91,4.41-9.43,8.26-16.42,11.43A57.9,57.9,0,0,1,1345.35,465.08Zm-47.19-57.58.21,7c.81,14.84,5.41,26.71,13.68,35.24h0c8.24,8.51,19.44,12.82,33.3,12.82a55.47,55.47,0,0,0,23.08-4.56c6.67-3,11.92-6.67,15.59-10.82s5.41-7.47,5.41-10.19a2.38,2.38,0,0,0-.8-2,3.52,3.52,0,0,0-2.33-.75h-10.18a6.48,6.48,0,0,0-2.83.37,10.39,10.39,0,0,0-2.41,2.67,32.29,32.29,0,0,1-9.38,8.31c-4.27,2.68-9.77,4-16.36,4a25.71,25.71,0,0,1-21-9.93c-5.21-6.48-8.06-14.45-8.49-23.69v-3.17h73.17a3.39,3.39,0,0,0,3.54-3.54v-3.53c0-16.24-4.17-29.29-12.38-38.79s-19.88-14.22-34.82-14.22c-13.57,0-24.64,4.34-32.88,12.92s-13,20.38-13.89,35Zm76.91-6.45h-59.44v-1.86c0-9.82,2.65-18,7.88-24.19s12.56-9.48,21.63-9.48,16.42,3.18,21.84,9.47,8.09,14.37,8.09,24.2Zm-57-2.48h54.47c-.12-8.94-2.63-16.32-7.49-22s-11.64-8.61-20-8.61-14.94,2.89-19.73,8.6S1318.23,389.63,1318.12,398.57Z"/><path class="cls-1" d="M336.43,350.94l-5.38-53.29L241,365.49A61.78,61.78,0,0,1,185,375L89.32,344.42,94,390.64a14.89,14.89,0,0,0,1,4,28.75,28.75,0,0,0,19.52,21.86l82.18,26.25a65.78,65.78,0,0,0,59.48-10.1l69-52A28.68,28.68,0,0,0,336.42,354,14.22,14.22,0,0,0,336.43,350.94Z"/><path class="cls-1" d="M353.7,216.29,205.16,175.7a72,72,0,0,0-61.6,11.45L27.87,272.25a22.2,22.2,0,0,0,6.4,39l13.36,4.27,7,69.35a6.52,6.52,0,0,0,6.48,5.87c.22,0,.44,0,.67,0a6.52,6.52,0,0,0,5.83-7.14l-6.43-63.71L183.62,359a57.12,57.12,0,0,0,51.75-8.79l125.84-94.76A22.2,22.2,0,0,0,353.7,216.29Z"/></svg>